<svg width="623" height="225" viewBox="0 0 623 225" fill="none" xmlns="http://www.w3.org/2000/svg">
<path d="M3 222.303C14.8333 178.137 56.2 105.403 127 167.803C215.5 245.803 245.5 181.803 266 135.303C286.5 88.8032 341.5 13.8032 402.5 98.3032C463.5 182.803 506 162.303 530.5 118.803C555 75.3032 591.5 88.8032 621.5 98.3032" stroke="#33404F" stroke-width="3" stroke-linecap="round" stroke-dasharray="10 10"/>
<path d="M1.5 223.5C9.16667 167.667 44.7 70.4 125.5 128C226.5 200 271.5 185 294.5 151C317.5 117 365 44.0001 434.5 90.0001C504 136 521.5 97.5 538 72C554.5 46.5 569.5 38 613 64" stroke="#00DDA3" stroke-width="3" stroke-linecap="round" stroke-dasharray="10 10"/>
<circle cx="340" cy="61" r="13" fill="#33404F"/>
<circle cx="567" cy="49" r="13" fill="#00DDA3"/>
<path d="M304.477 37.9922V36.0732C308.769 35.707 311.244 33.4658 311.244 29.877C311.244 26.8447 309.516 24.9844 305.839 24.0908L304.477 23.7832V17.4697C306.41 17.7041 307.729 18.9639 307.787 20.5752H310.849C310.761 17.3086 308.271 14.9941 304.477 14.6572V12.6357H302.47V14.6572C298.515 15.0234 296.112 17.2646 296.112 20.6484C296.112 23.5049 297.899 25.4678 301.166 26.3027L302.47 26.6396V33.3193C300.287 33.0703 298.881 31.8545 298.734 30.1113H295.629C295.644 33.5098 298.28 35.8096 302.47 36.0879V37.9922H304.477ZM308.124 30.2139C308.124 32.0742 306.791 33.2168 304.477 33.3486V27.0205C306.967 27.5186 308.124 28.5293 308.124 30.2139ZM299.247 20.3848C299.247 18.7881 300.595 17.5576 302.47 17.4551V23.3584C300.36 22.9336 299.247 21.8936 299.247 20.3848ZM320.751 36H324.032V14.8623H320.766L315.199 18.7881V22.1426L320.502 18.3926H320.751V36ZM331.078 36H334.521L343.72 17.8359V14.8623H329.32V17.7773H340.395V18.0117L331.078 36ZM355.731 36H358.896V31.9131H361.811V28.9834H358.896V14.8623H354.223C350.458 20.502 347.309 25.4092 345.419 28.8662V31.9131H355.731V36ZM348.568 28.8516C351.059 24.5303 353.49 20.7803 355.585 17.748H355.775V29.0566H348.568V28.8516Z" fill="#33404F"/>
<path d="M532.424 30.9922V29.0732C536.716 28.707 539.191 26.4658 539.191 22.877C539.191 19.8447 537.463 17.9844 533.786 17.0908L532.424 16.7832V10.4697C534.357 10.7041 535.676 11.9639 535.734 13.5752H538.796C538.708 10.3086 536.218 7.99414 532.424 7.65723V5.63574H530.417V7.65723C526.462 8.02344 524.06 10.2646 524.06 13.6484C524.06 16.5049 525.847 18.4678 529.113 19.3027L530.417 19.6396V26.3193C528.234 26.0703 526.828 24.8545 526.682 23.1113H523.576C523.591 26.5098 526.228 28.8096 530.417 29.0879V30.9922H532.424ZM536.071 23.2139C536.071 25.0742 534.738 26.2168 532.424 26.3486V20.0205C534.914 20.5186 536.071 21.5293 536.071 23.2139ZM527.194 13.3848C527.194 11.7881 528.542 10.5576 530.417 10.4551V16.3584C528.308 15.9336 527.194 14.8936 527.194 13.3848ZM553.356 29H556.521V24.9131H559.436V21.9834H556.521V7.8623H551.848C548.083 13.502 544.934 18.4092 543.044 21.8662V24.9131H553.356V29ZM546.193 21.8516C548.684 17.5303 551.115 13.7803 553.21 10.748H553.4V22.0566H546.193V21.8516ZM570.759 29.5127C575.314 29.5127 578.405 26.5391 578.405 22.1592C578.405 17.999 575.578 15.0693 571.564 15.0693C569.558 15.0693 568.063 15.7432 567.097 16.9883H566.848L567.404 10.792H577.175V7.8623H564.841L563.728 19.9619H566.73C567.551 18.5996 569.016 17.7939 570.832 17.7939C573.41 17.7939 575.197 19.5957 575.197 22.2471C575.197 24.8838 573.425 26.627 570.788 26.627C568.474 26.627 566.76 25.2646 566.511 23.2139H563.391C563.581 26.9199 566.555 29.5127 570.759 29.5127ZM587.429 29H590.71V7.8623H587.443L581.877 11.7881V15.1426L587.18 11.3926H587.429V29Z" fill="#00DDA3"/>
</svg>
